<svg width="275" height="100" viewBox="0 0 275 100" fill="none" xmlns="http://www.w3.org/2000/svg">
<path d="M48.6254 42.3375L77.2904 46.8375L33.6808 85.4958L42.6942 90.0167L98.1933 42.3375L64.4204 36.7042L80.2804 12.4917L72.5129 9.10416L48.6254 42.3375Z" fill="#D8D8D8"/>
<mask id="mask0_1_20" style="mask-type:luminance" maskUnits="userSpaceOnUse" x="33" y="9" width="66" height="82">
<path d="M48.6254 42.3375L77.2904 46.8375L33.6808 85.4958L42.6942 90.0167L98.1933 42.3375L64.4204 36.7042L80.2804 12.4917L72.5129 9.10416L48.6254 42.3375Z" fill="white"/>
</mask>
<g mask="url(#mask0_1_20)">
<path d="M130 0H0V100H130V0Z" fill="#FFA0A0"/>
</g>
<path d="M77.2292 32.8558L94.0786 35.2845C102.348 36.4765 105.772 44.1479 100.199 48.9958L49.5859 93.0205C41.3211 100.209 26.4082 92.7247 31.6332 84.0099L48.2985 56.214L35.9138 54.4217C28.5687 53.3588 24.7962 47.0291 28.5429 42.0545L50.8109 12.4891C52.7482 9.91688 56.3201 8.33331 60.1847 8.33331H76.8895C85.2333 8.33331 90.445 15.2842 86.2666 20.8398L77.2292 32.8558ZM76.8895 16.6666H60.1847L37.9167 46.2321L63.9542 50L41.4707 87.5L92.0833 43.4753L60.1847 38.8773L76.8895 16.6666Z" fill="black"/>
<mask id="mask1_1_20" style="mask-type:luminance" maskUnits="userSpaceOnUse" x="27" y="8" width="76" height="88">
<path d="M77.2292 32.8558L94.0786 35.2845C102.348 36.4765 105.772 44.1479 100.199 48.9958L49.5859 93.0205C41.3211 100.209 26.4082 92.7247 31.6332 84.0099L48.2985 56.214L35.9138 54.4217C28.5687 53.3588 24.7962 47.0291 28.5429 42.0545L50.8109 12.4891C52.7482 9.91688 56.3201 8.33331 60.1847 8.33331H76.8895C85.2333 8.33331 90.445 15.2842 86.2666 20.8398L77.2292 32.8558ZM76.8895 16.6666H60.1847L37.9167 46.2321L63.9542 50L41.4707 87.5L92.0833 43.4753L60.1847 38.8773L76.8895 16.6666Z" fill="white"/>
</mask>
<g mask="url(#mask1_1_20)">
<path d="M130 0H0V100H130V0Z" fill="#7600FF"/>
</g>
<path d="M112.205 75L119.932 28.4545H136.977C140.28 28.4545 142.924 29 144.909 30.0909C146.909 31.1667 148.288 32.6288 149.045 34.4773C149.803 36.3106 149.985 38.3788 149.591 40.6818C149.273 42.6212 148.644 44.25 147.705 45.5682C146.78 46.8864 145.659 47.947 144.341 48.75C143.023 49.553 141.636 50.1364 140.182 50.5L140.091 50.9545C141.606 51.0303 143.023 51.5303 144.341 52.4545C145.674 53.3636 146.689 54.6591 147.386 56.3409C148.083 58.0227 148.242 60.0682 147.864 62.4773C147.455 64.8561 146.53 66.9924 145.091 68.8864C143.667 70.7652 141.705 72.2576 139.205 73.3636C136.705 74.4545 133.652 75 130.045 75H112.205ZM120.227 68.9773H130.364C133.727 68.9773 136.242 68.3258 137.909 67.0227C139.591 65.7197 140.606 64.0909 140.955 62.1364C141.182 60.6667 141.023 59.3182 140.477 58.0909C139.947 56.8636 139.053 55.8864 137.795 55.1591C136.553 54.4318 134.992 54.0682 133.114 54.0682H122.727L120.227 68.9773ZM123.659 48.5909H133.045C134.621 48.5909 136.091 48.2879 137.455 47.6818C138.833 47.0758 139.977 46.2197 140.886 45.1136C141.811 44.0076 142.386 42.7121 142.614 41.2273C142.947 39.2879 142.545 37.6742 141.409 36.3864C140.288 35.0833 138.341 34.4318 135.568 34.4318H125.977L123.659 48.5909ZM198.307 52.1818C197.489 57.0758 195.898 61.2727 193.534 64.7727C191.186 68.2727 188.307 70.9621 184.898 72.8409C181.504 74.7045 177.837 75.6364 173.898 75.6364C169.792 75.6364 166.284 74.6591 163.375 72.7045C160.481 70.7348 158.405 67.9394 157.148 64.3182C155.89 60.6818 155.678 56.3485 156.511 51.3182C157.33 46.4242 158.913 42.2273 161.261 38.7273C163.625 35.2121 166.511 32.5152 169.92 30.6364C173.345 28.7576 177.042 27.8182 181.011 27.8182C185.087 27.8182 188.564 28.803 191.443 30.7727C194.337 32.7273 196.413 35.5303 197.67 39.1818C198.928 42.8182 199.14 47.1515 198.307 52.1818ZM191.466 51.3182C192.087 47.6061 192.011 44.4848 191.239 41.9545C190.481 39.4091 189.186 37.4848 187.352 36.1818C185.519 34.8788 183.307 34.2273 180.716 34.2273C177.958 34.2273 175.375 34.9242 172.966 36.3182C170.572 37.7121 168.527 39.7424 166.83 42.4091C165.133 45.0758 163.973 48.3333 163.352 52.1818C162.716 55.8939 162.784 59.0152 163.557 61.5455C164.33 64.0758 165.633 65.9924 167.466 67.2955C169.314 68.5833 171.534 69.2273 174.125 69.2273C176.867 69.2273 179.436 68.5379 181.83 67.1591C184.239 65.7652 186.292 63.7424 187.989 61.0909C189.686 58.4242 190.845 55.1667 191.466 51.3182ZM203.267 75L210.994 28.4545H218.017L211.29 68.9545H232.381L231.381 75H203.267ZM237.761 34.5L238.761 28.4545H274.784L273.784 34.5H259.261L252.534 75H245.534L252.261 34.5H237.761Z" fill="#7600FF"/>
</svg>
